<?xml version="1.0" encoding="UTF-8"?>
<!DOCTYPE svg PUBLIC "-//W3C//DTD SVG 1.1//EN" "http://www.w3.org/Graphics/SVG/1.1/DTD/svg11.dtd">
<!-- Creator: CorelDRAW 2020 (64 Bit) -->
<svg xmlns="http://www.w3.org/2000/svg" xml:space="preserve" width="300.54mm" height="297mm" version="1.1" style="shape-rendering:geometricPrecision; text-rendering:geometricPrecision; image-rendering:optimizeQuality; fill-rule:evenodd; clip-rule:evenodd"
viewBox="0 0 30054 29700"
 xmlns:xlink="http://www.w3.org/1999/xlink"
 xmlns:xodm="http://www.corel.com/coreldraw/odm/2003">
 <defs>
  <style type="text/css">
   <![CDATA[
    .fil0 {fill:#373435}
   ]]>
  </style>
   <clipPath id="id0">
    <path d="M20302.02 8682.54l226.36 -5.68 -169.4 2274.03 -56.96 -2268.35zm1039.93 -26.12l4462.13 -112.05 12.92 514.52 -4475.05 -402.47zm4572.88 4298.71l28.47 1133.63 -5502.06 138.17 -44.4 -1768.06 5517.99 496.26z"/>
   </clipPath>
   <clipPath id="id1">
    <path d="M20441.24 14226.92l0.4 0 5501.66 -138.16 -28.47 -1133.63 -5517.99 -496.26 44.4 1768.05zm-139.22 -5544.38l226.36 -5.68 -169.4 2274.03 -56.96 -2268.35zm1039.93 -26.12l4462.13 -112.05 12.92 514.52 -4475.05 -402.47z"/>
   </clipPath>
   <clipPath id="id2">
    <path d="M20302.02 8682.54l226.36 -5.68 -169.4 2274.03 -56.96 -2268.35zm1039.93 -26.12l4462.13 -112.05 12.92 514.52 -4475.05 -402.47zm4572.88 4298.71l28.47 1133.63 -5502.06 138.17 -44.4 -1768.06 5517.99 496.26z"/>
   </clipPath>
   <clipPath id="id3">
    <path d="M20563.66 8412.28l813.57 -20.44 4475.05 402.47 97.83 3896.24 -5517.99 -496.26 -37.86 -1507.98 169.4 -2274.03z"/>
   </clipPath>
   <clipPath id="id4">
    <path d="M20563.66 8412.28l813.57 -20.44 4475.05 402.47 97.83 3896.24 -5517.99 -496.26 -37.86 -1507.98 169.4 -2274.03z"/>
   </clipPath>
   <clipPath id="id5">
    <path d="M20563.66 8412.28l813.57 -20.44 4475.05 402.47 97.83 3896.24 -5517.99 -496.26 -37.86 -1507.98 169.4 -2274.03z"/>
   </clipPath>
 </defs>
 <g id="Camada_x0020_1">
  <metadata id="CorelCorpID_0Corel-Layer"/>
  <path class="fil0" d="M5408.29 11134.81c139.7,986.97 906.03,1053.78 1463.54,1104.53 340.05,27.77 603.18,53.75 608.92,272.49 10.12,385.63 -308.79,493.96 -571.05,500.84 -263.38,6.92 -489.31,-87.11 -596,-470.21l-882.28 23.15c120.65,1542.97 754.99,1737.61 1511.71,1721.54 758.83,-19.91 1457.23,-376.06 1419.9,-1798.47 -15.41,-618.33 -233.05,-947.55 -522.26,-1129.1l-2432.48 -224.77zm3197.47 2994.84l2528.32 -66.35 -33.44 -1274.49 -1686.1 44.25 -16.72 -637.25 1686.09 -44.24 -12.96 -493.52 -2536.21 -234.35 71.02 2705.95zm2887.7 -2432.56l61.81 2355.15 2528.33 -66.34 -41.41 -1577.94 -1686.09 44.25 -17.78 -677.06 -844.86 -78.06zm2848.92 2282.01l2528.33 -66.34 -33.45 -1274.49 -1686.1 44.25 -16.72 -637.24 99.12 -2.61 -944.29 -87.25 53.11 2023.68zm2905.62 -1750.29l43.91 1672.9 842.22 -22.11 -41.27 -1572.72 -844.86 -78.07zm1434.34 132.53l612.26 1487.81 948.66 -24.9 -34.69 -1321.88 -1526.23 -141.03z"/>
  <path class="fil0" d="M6330.26 10519.62c-10.41,-397.01 308.79,-493.95 570.51,-500.81 263.95,-5.67 489.69,80.76 596.54,470.19l882.28 -23.16c-120.86,-1550.54 -754.78,-1730.03 -1512.27,-1721.53 -758.27,19.9 -1456.6,378.58 -1419.34,1798.46 2.4,96.36 9.74,185.67 21.46,268.52l2432.49 224.77c-292.73,-183.78 -658.76,-216.27 -962.75,-243.94 -340.05,-27.77 -603.11,-51.24 -608.92,-272.5zm13939.47 1659.23l-1526.23 -141.03 -628.11 -1526.34 38.63 1471.88 -844.86 -78.07 -86.89 -3311.26 1158.81 -30.41 1017.4 2615.12 -69.28 -2640.01 844.42 -22.16 96.11 3662.28zm-4975.01 -459.69l-944.29 -87.26 -77.48 -2952.88 2528.31 -66.35 33.45 1274.49 -1686.09 44.25 16.72 637.24 1686.1 -44.25 30.25 1153.1 -1586.97 41.66zm-2895.24 -267.53l-844.86 -78.06 -68.99 -2628.99 842.24 -22.1 71.61 2729.15zm-1267.37 -117.1l-2536.21 -234.35 -59.59 -2270.62 2528.33 -66.35 33.45 1274.5 -1686.11 44.25 16.73 637.24 1686.1 -44.25 17.3 659.58z"/>
  <g style="clip-path:url(#id0)">
  </g>
  <g style="clip-path:url(#id1)">
   <image x="20302.02" y="8544.37" width="5641.28" height="5682.55" xlink:href="logo_Images\logo_ImgID1.png"/>
  </g>
  <g style="clip-path:url(#id2)">
  </g>
  <g style="clip-path:url(#id3)">
  </g>
  <g style="clip-path:url(#id4)">
   <image x="20337.3" y="8279.79" width="5641.28" height="5682.55" xlink:href="logo_Images\logo_ImgID2.png"/>
  </g>
  <g style="clip-path:url(#id5)">
  </g>
 </g>
</svg>
