<?xml version="1.0" encoding="UTF-8"?>
<!DOCTYPE svg PUBLIC "-//W3C//DTD SVG 1.1//EN" "http://www.w3.org/Graphics/SVG/1.1/DTD/svg11.dtd">
<!-- Creator: CorelDRAW 2020 (64 Bit) -->
<svg xmlns="http://www.w3.org/2000/svg" xml:space="preserve" width="300.54mm" height="297mm" version="1.1" style="shape-rendering:geometricPrecision; text-rendering:geometricPrecision; image-rendering:optimizeQuality; fill-rule:evenodd; clip-rule:evenodd"
viewBox="0 0 30054 29700"
 xmlns:xlink="http://www.w3.org/1999/xlink"
 xmlns:xodm="http://www.corel.com/coreldraw/odm/2003">
 <defs>
  <style type="text/css">
   <![CDATA[
    .str0 {stroke:#373435;stroke-width:20;stroke-miterlimit:22.9256}
    .fil1 {fill:#FEFEFE}
    .fil0 {fill:#373435}
   ]]>
  </style>
   <clipPath id="id0">
    <path d="M25941.21 15046.91l0 1624.29 -5503.8 0 0 -1851.05 5503.8 226.76z"/>
   </clipPath>
   <clipPath id="id1">
    <path d="M20455.05 10825.19l5503.8 0 0 3921.85 -5503.8 -226.76 0 -3695.09z"/>
   </clipPath>
 </defs>
 <g id="Camada_x0020_1">
  <metadata id="CorelCorpID_0Corel-Layer"/>
  <rect class="fil0 str0" x="239.16" y="607.07" width="30071.52" height="29695.62"/>
  <path class="fil1" d="M5393.1 14168.66c292.18,185.6 662.87,226.4 970.68,260.93 344.3,35.54 610.61,67.4 610.61,279.4 0,373.76 -326.47,470.57 -592.78,470.57 -267.42,0 -494.17,-96.81 -592.22,-470.57l-895.85 0c81.34,1497.49 719.8,1702.14 1488.07,1705.82 770.5,0 1488.63,-327.19 1488.63,-1705.82 0.23,-164.62 -15.71,-308.36 -44.78,-434.28l-2432.36 -106.05zm2706.12 2135.86l2567.22 0 0 -1235.25 -1712.04 0 0 -617.62 1712.04 0 0 -53.08 -2567.22 -111.93 0 2017.88zm3021.27 -1886.16l0 1886.16 2567.22 0 0 -1529.35 -1712.04 0 0 -319.52 -855.18 -37.29zm2856.36 1886.16l2567.22 0 0 -1235.25 -1712.04 0 0 -489.09 -855.18 -37.29 0 1761.63zm3021.28 -1629.91l0 1629.91 855.18 0 0 -1592.62 -855.18 -37.29zm1407.15 61.35l626.34 1568.56 963.26 0 0 -1499.26 -1589.6 -69.3z"/>
  <path class="fil1" d="M5824.67 12779.77c0,-384.79 326.47,-470.57 592.22,-470.57 267.98,1.23 494.73,90.68 592.78,470.57l895.85 0c-81.34,-1504.84 -719.8,-1694.78 -1488.63,-1705.81 -769.94,0 -1488.07,329.64 -1488.07,1705.81 -0.83,599.06 211.1,923.43 499.56,1106.66l2432.36 106.05c-183.89,-796.37 -897.25,-874.05 -1425.46,-933.31 -344.31,-35.54 -610.61,-64.95 -610.61,-279.4zm14205.49 1743.26l-1589.6 -69.3 -551.97 -1382.3 0 1358.24 -855.18 -37.29 0 -3200.78 1176.64 0 962.71 2558.72 0 -2558.72 857.4 0 0 3331.43zm-5162.85 -225.08l-855.18 -37.29 0 -3061.71 2567.22 0 0 1235.25 -1712.04 0 0 617.62 1712.04 0 0 1117.6 -1712.04 0 0 128.53zm-2856.36 -124.53l-855.18 -37.29 0 -2944.53 855.18 0 0 2981.82zm-1309.23 -57.08l-2567.22 -111.93 0 -2805.46 2567.22 0 0 1235.25 -1712.04 0 0 617.62 1712.04 0 0 1064.52z"/>
  <g style="clip-path:url(#id0)">
   <image x="20437.41" y="11125.06" width="5503.8" height="5546.14" xlink:href="logo branca_Images\logo branca_ImgID1.png"/>
  </g>
  <g style="clip-path:url(#id1)">
   <image x="20455.05" y="10825.19" width="5503.8" height="5546.14" xlink:href="logo branca_Images\logo branca_ImgID2.png"/>
  </g>
 </g>
</svg>
